<?xml version="1.0" encoding="UTF-8" standalone="no"?>
<!-- Created with Inkscape (http://www.inkscape.org/) -->

<svg
   xmlns:dc="http://purl.org/dc/elements/1.1/"
   xmlns:cc="http://creativecommons.org/ns#"
   xmlns:rdf="http://www.w3.org/1999/02/22-rdf-syntax-ns#"
   xmlns:svg="http://www.w3.org/2000/svg"
   xmlns="http://www.w3.org/2000/svg"
   xmlns:sodipodi="http://sodipodi.sourceforge.net/DTD/sodipodi-0.dtd"
   xmlns:inkscape="http://www.inkscape.org/namespaces/inkscape"
   width="500"
   height="500"
   id="svg2"
   version="1.1"
   inkscape:version="0.48.4 r9939"
   sodipodi:docname="traversal.svg">
  <defs
     id="defs4" />
  <sodipodi:namedview
     id="base"
     pagecolor="#ffffff"
     bordercolor="#666666"
     borderopacity="1.0"
     inkscape:pageopacity="0.0"
     inkscape:pageshadow="2"
     inkscape:zoom="0.7"
     inkscape:cx="283.68492"
     inkscape:cy="363.3662"
     inkscape:document-units="px"
     inkscape:current-layer="layer1"
     showgrid="false"
     inkscape:window-width="1360"
     inkscape:window-height="744"
     inkscape:window-x="0"
     inkscape:window-y="24"
     inkscape:window-maximized="1"
     inkscape:showpageshadow="false"
     showborder="true" />
  <metadata
     id="metadata7">
    <rdf:RDF>
      <cc:Work
         rdf:about="">
        <dc:format>image/svg+xml</dc:format>
        <dc:type
           rdf:resource="http://purl.org/dc/dcmitype/StillImage" />
      </cc:Work>
    </rdf:RDF>
  </metadata>
  <g
     inkscape:label="Layer 1"
     inkscape:groupmode="layer"
     id="layer1"
     transform="translate(0,-552.36218)">
    <g
       id="g3763"
       transform="matrix(3.6488134,0,0,3.7155765,-1288.2253,-1053.8066)">
      <rect
         y="432.38104"
         x="353.30087"
         height="134.35025"
         width="136.62308"
         id="rect3755"
         style="fill:#800000" />
      <path
         d="m 489.22984,499.50504 c 0,36.61698 -30.35567,66.30091 -67.80128,66.30091 -37.44562,0 -67.80129,-29.68393 -67.80129,-66.30091 0,-36.61699 30.35567,-66.30092 67.80129,-66.30092 37.44561,0 67.80128,29.68393 67.80128,66.30092 z"
         sodipodi:ry="66.300911"
         sodipodi:rx="67.801285"
         sodipodi:cy="499.50504"
         sodipodi:cx="421.42856"
         id="path2985"
         style="fill:#00ff00;fill-rule:evenodd;stroke:#000000;stroke-width:1px;stroke-linecap:butt;stroke-linejoin:miter;stroke-opacity:1"
         sodipodi:type="arc" />
    </g>
    <g
       transform="matrix(2.5296214,0,0,2.5883284,-816.74098,-489.43476)"
       id="g3767">
      <rect
         style="fill:#800000"
         id="rect3769"
         width="136.62308"
         height="134.35025"
         x="353.30087"
         y="432.38104" />
      <path
         sodipodi:type="arc"
         style="fill:#00ff00;fill-rule:evenodd;stroke:#000000;stroke-width:1px;stroke-linecap:butt;stroke-linejoin:miter;stroke-opacity:1"
         id="path3771"
         sodipodi:cx="421.42856"
         sodipodi:cy="499.50504"
         sodipodi:rx="67.801285"
         sodipodi:ry="66.300911"
         d="m 489.22984,499.50504 c 0,36.61698 -30.35567,66.30091 -67.80128,66.30091 -37.44562,0 -67.80129,-29.68393 -67.80129,-66.30091 0,-36.61699 30.35567,-66.30092 67.80129,-66.30092 37.44561,0 67.80128,29.68393 67.80128,66.30092 z" />
    </g>
    <g
       id="g3773"
       transform="matrix(1.7602187,0,0,1.7799162,-491.19766,-86.074296)">
      <rect
         y="432.38104"
         x="353.30087"
         height="134.35025"
         width="136.62308"
         id="rect3775"
         style="fill:#800000" />
      <path
         d="m 489.22984,499.50504 c 0,36.61698 -30.35567,66.30091 -67.80128,66.30091 -37.44562,0 -67.80129,-29.68393 -67.80129,-66.30091 0,-36.61699 30.35567,-66.30092 67.80129,-66.30092 37.44561,0 67.80128,29.68393 67.80128,66.30092 z"
         sodipodi:ry="66.300911"
         sodipodi:rx="67.801285"
         sodipodi:cy="499.50504"
         sodipodi:cx="421.42856"
         id="path3777"
         style="fill:#00ff00;fill-rule:evenodd;stroke:#000000;stroke-width:1px;stroke-linecap:butt;stroke-linejoin:miter;stroke-opacity:1"
         sodipodi:type="arc" />
    </g>
    <g
       transform="matrix(1.2084781,0,0,1.2335661,-258.62385,188.86015)"
       id="g3779">
      <rect
         style="fill:#800000"
         id="rect3781"
         width="136.62308"
         height="134.35025"
         x="353.30087"
         y="432.38104" />
      <path
         sodipodi:type="arc"
         style="fill:#00ff00;fill-rule:evenodd;stroke:#000000;stroke-width:1px;stroke-linecap:butt;stroke-linejoin:miter;stroke-opacity:1"
         id="path3783"
         sodipodi:cx="421.42856"
         sodipodi:cy="499.50504"
         sodipodi:rx="67.801285"
         sodipodi:ry="66.300911"
         d="m 489.22984,499.50504 c 0,36.61698 -30.35567,66.30091 -67.80128,66.30091 -37.44562,0 -67.80129,-29.68393 -67.80129,-66.30091 0,-36.61699 30.35567,-66.30092 67.80129,-66.30092 37.44561,0 67.80128,29.68393 67.80128,66.30092 z" />
    </g>
    <g
       id="g3785"
       transform="matrix(0.85509874,0,0,0.86043434,-109.41864,374.84577)">
      <rect
         y="432.38104"
         x="353.30087"
         height="134.35025"
         width="136.62308"
         id="rect3787"
         style="fill:#800000" />
      <path
         d="m 489.22984,499.50504 c 0,36.61698 -30.35567,66.30091 -67.80128,66.30091 -37.44562,0 -67.80129,-29.68393 -67.80129,-66.30091 0,-36.61699 30.35567,-66.30092 67.80129,-66.30092 37.44561,0 67.80128,29.68393 67.80128,66.30092 z"
         sodipodi:ry="66.300911"
         sodipodi:rx="67.801285"
         sodipodi:cy="499.50504"
         sodipodi:cx="421.42856"
         id="path3789"
         style="fill:#00ff00;fill-rule:evenodd;stroke:#000000;stroke-width:1px;stroke-linecap:butt;stroke-linejoin:miter;stroke-opacity:1"
         sodipodi:type="arc" />
    </g>
    <g
       transform="matrix(0.59587323,0,0,0.59719293,-0.31051798,507.01697)"
       id="g3791">
      <rect
         style="fill:#800000"
         id="rect3793"
         width="136.62308"
         height="134.35025"
         x="353.30087"
         y="432.38104" />
      <path
         sodipodi:type="arc"
         style="fill:#00ff00;fill-rule:evenodd;stroke:#000000;stroke-width:1px;stroke-linecap:butt;stroke-linejoin:miter;stroke-opacity:1"
         id="path3795"
         sodipodi:cx="421.42856"
         sodipodi:cy="499.50504"
         sodipodi:rx="67.801285"
         sodipodi:ry="66.300911"
         d="m 489.22984,499.50504 c 0,36.61698 -30.35567,66.30091 -67.80128,66.30091 -37.44562,0 -67.80129,-29.68393 -67.80129,-66.30091 0,-36.61699 30.35567,-66.30092 67.80129,-66.30092 37.44561,0 67.80128,29.68393 67.80128,66.30092 z" />
    </g>
  </g>
</svg>
